<svg width="1080" height="1080" viewBox="0 0 1080 1080" fill="none" xmlns="http://www.w3.org/2000/svg">
<circle cx="540" cy="540" r="540" fill="#D9D9D9"/>
<circle cx="540" cy="540" r="540" fill="url(#paint0_linear_2003_60)"/>
<path d="M348.165 449.273V498.989H186.943V449.273H348.165ZM227.249 722V423.527C227.249 405.179 231.036 389.91 238.612 377.717C246.306 365.525 256.605 356.411 269.507 350.374C282.41 344.337 296.732 341.318 312.476 341.318C323.603 341.318 333.487 342.206 342.128 343.982C350.769 345.757 357.161 347.355 361.304 348.776L348.52 398.491C345.797 397.663 342.365 396.834 338.222 396.006C334.079 395.059 329.462 394.585 324.372 394.585C312.417 394.585 303.953 397.485 298.982 403.286C294.128 408.967 291.702 417.135 291.702 427.788V722H227.249ZM398.502 722V449.273H459.937V495.615H463.133C468.815 479.99 478.225 467.798 491.364 459.038C504.504 450.161 520.188 445.722 538.417 445.722C556.883 445.722 572.449 450.22 585.114 459.216C597.898 468.094 606.895 480.227 612.103 495.615H614.944C620.981 480.464 631.161 468.39 645.484 459.393C659.925 450.279 677.03 445.722 696.798 445.722C721.892 445.722 742.371 453.652 758.232 469.514C774.094 485.376 782.025 508.518 782.025 538.939V722H717.572V548.882C717.572 531.955 713.074 519.585 704.077 511.773C695.081 503.842 684.073 499.876 671.052 499.876C655.545 499.876 643.412 504.73 634.653 514.436C626.012 524.024 621.691 536.512 621.691 551.901V722H558.658V546.219C558.658 532.133 554.397 520.887 545.874 512.483C537.47 504.079 526.461 499.876 512.849 499.876C503.616 499.876 495.211 502.244 487.636 506.979C480.06 511.595 474.023 518.165 469.525 526.688C465.027 535.092 462.778 544.917 462.778 556.162V722H398.502ZM886.828 725.906C876.056 725.906 866.823 722.118 859.129 714.543C851.435 706.967 847.647 697.734 847.765 686.844C847.647 676.19 851.435 667.076 859.129 659.5C866.823 651.924 876.056 648.136 886.828 648.136C897.244 648.136 906.3 651.924 913.994 659.5C921.806 667.076 925.772 676.19 925.89 686.844C925.772 694.064 923.878 700.634 920.208 706.553C916.657 712.471 911.922 717.206 906.004 720.757C900.204 724.19 893.812 725.906 886.828 725.906Z" fill="white"/>
<defs>
<linearGradient id="paint0_linear_2003_60" x1="1035" y1="78" x2="106.5" y2="990" gradientUnits="userSpaceOnUse">
<stop stop-color="#F86F1A"/>
<stop stop-color="#F66623"/>
<stop offset="0.678798" stop-color="#EE4A3D"/>
</linearGradient>
</defs>
</svg>
